<svg width="25" height="25" viewBox="0 0 25 25" fill="none" xmlns="http://www.w3.org/2000/svg">
<path fill-rule="evenodd" clip-rule="evenodd" d="M12.5004 18.0556C14.0346 18.0556 15.2782 19.2992 15.2782 20.8334C15.2782 22.3675 14.0346 23.6111 12.5004 23.6111C10.9663 23.6111 9.72266 22.3675 9.72266 20.8334C9.72266 19.2992 10.9663 18.0556 12.5004 18.0556ZM12.5004 9.72225C14.0346 9.72225 15.2782 10.9659 15.2782 12.5C15.2782 14.0342 14.0346 15.2778 12.5004 15.2778C10.9663 15.2778 9.72266 14.0342 9.72266 12.5C9.72266 10.9659 10.9663 9.72225 12.5004 9.72225ZM12.5004 1.38892C14.0346 1.38892 15.2782 2.63257 15.2782 4.16669C15.2782 5.70082 14.0346 6.94447 12.5004 6.94447C10.9663 6.94447 9.72266 5.70082 9.72266 4.16669C9.72266 2.63257 10.9663 1.38892 12.5004 1.38892Z" fill="white"/>
<mask id="mask0_896_3596" style="mask-type:luminance" maskUnits="userSpaceOnUse" x="9" y="1" width="7" height="23">
<path fill-rule="evenodd" clip-rule="evenodd" d="M12.5004 18.0556C14.0346 18.0556 15.2782 19.2992 15.2782 20.8334C15.2782 22.3675 14.0346 23.6111 12.5004 23.6111C10.9663 23.6111 9.72266 22.3675 9.72266 20.8334C9.72266 19.2992 10.9663 18.0556 12.5004 18.0556ZM12.5004 9.72225C14.0346 9.72225 15.2782 10.9659 15.2782 12.5C15.2782 14.0342 14.0346 15.2778 12.5004 15.2778C10.9663 15.2778 9.72266 14.0342 9.72266 12.5C9.72266 10.9659 10.9663 9.72225 12.5004 9.72225ZM12.5004 1.38892C14.0346 1.38892 15.2782 2.63257 15.2782 4.16669C15.2782 5.70082 14.0346 6.94447 12.5004 6.94447C10.9663 6.94447 9.72266 5.70082 9.72266 4.16669C9.72266 2.63257 10.9663 1.38892 12.5004 1.38892Z" fill="white"/>
</mask>
<g mask="url(#mask0_896_3596)">
</g>
</svg>
