<svg width="16" height="16" viewBox="0 0 16 16" fill="none" xmlns="http://www.w3.org/2000/svg">
<path fill-rule="evenodd" clip-rule="evenodd" d="M8 0C10.2091 0 12 1.79086 12 4C12 6.20914 10.2091 8 8 8C5.79086 8 4 6.20914 4 4C4 1.79086 5.79086 0 8 0ZM8 2C6.89543 2 6 2.89543 6 4C6 5.10457 6.89543 6 8 6C9.10457 6 10 5.10457 10 4C10 2.89543 9.10457 2 8 2ZM8 9C10.67 9 16 10.33 16 13V16H0V13C0 10.33 5.33 9 8 9ZM8 10.9C5.03 10.9 1.9 12.36 1.9 13V14.1H14.1V13C14.1 12.36 10.97 10.9 8 10.9Z" fill="#666AEC"/>
<path fill-rule="evenodd" clip-rule="evenodd" d="M8 0C10.2091 0 12 1.79086 12 4C12 6.20914 10.2091 8 8 8C5.79086 8 4 6.20914 4 4C4 1.79086 5.79086 0 8 0ZM8 2C6.89543 2 6 2.89543 6 4C6 5.10457 6.89543 6 8 6C9.10457 6 10 5.10457 10 4C10 2.89543 9.10457 2 8 2ZM8 9C10.67 9 16 10.33 16 13V16H0V13C0 10.33 5.33 9 8 9ZM8 10.9C5.03 10.9 1.9 12.36 1.9 13V14.1H14.1V13C14.1 12.36 10.97 10.9 8 10.9Z" fill="#666AEC"/>
</svg>
