<svg width="16" height="16" viewBox="0 0 16 16" fill="none" xmlns="http://www.w3.org/2000/svg">
<path fill-rule="evenodd" clip-rule="evenodd" d="M5.77778 0C8.96876 0 11.5556 2.56302 11.5556 5.72467C11.5556 7.14263 11.0311 8.44609 10.1689 9.45011L10.4089 9.68791H11.1111L15.5556 14.0915L14.2222 15.4126L9.77778 11.009V10.3132L9.53778 10.0754C8.52444 10.9297 7.20889 11.4493 5.77778 11.4493C2.5868 11.4493 0 8.88632 0 5.72467C0 2.56302 2.5868 0 5.77778 0ZM5.77778 1.76144C3.55556 1.76144 1.77778 3.52288 1.77778 5.72467C1.77778 7.92647 3.55556 9.68791 5.77778 9.68791C8 9.68791 9.77778 7.92647 9.77778 5.72467C9.77778 3.52288 8 1.76144 5.77778 1.76144Z" fill="white"/>
<mask id="mask0_478_10047" style="mask-type:luminance" maskUnits="userSpaceOnUse" x="0" y="0" width="16" height="16">
<path fill-rule="evenodd" clip-rule="evenodd" d="M5.77778 0C8.96876 0 11.5556 2.56302 11.5556 5.72467C11.5556 7.14263 11.0311 8.44609 10.1689 9.45011L10.4089 9.68791H11.1111L15.5556 14.0915L14.2222 15.4126L9.77778 11.009V10.3132L9.53778 10.0754C8.52444 10.9297 7.20889 11.4493 5.77778 11.4493C2.5868 11.4493 0 8.88632 0 5.72467C0 2.56302 2.5868 0 5.77778 0ZM5.77778 1.76144C3.55556 1.76144 1.77778 3.52288 1.77778 5.72467C1.77778 7.92647 3.55556 9.68791 5.77778 9.68791C8 9.68791 9.77778 7.92647 9.77778 5.72467C9.77778 3.52288 8 1.76144 5.77778 1.76144Z" fill="white"/>
</mask>
<g mask="url(#mask0_478_10047)">
</g>
</svg>
