<svg width="48" height="48" viewBox="0 0 48 48" fill="none" xmlns="http://www.w3.org/2000/svg">
<g clip-path="url(#clip0_293_26)">
<rect width="48" height="48" rx="12" fill="#F7F7F7"/>
<path fill-rule="evenodd" clip-rule="evenodd" d="M24 32.8C28.8601 32.8 32.8 28.8601 32.8 24C32.8 19.1399 28.8601 15.2 24 15.2C19.1399 15.2 15.2 19.1399 15.2 24C15.2 28.8601 19.1399 32.8 24 32.8ZM24 13C26.9174 13 29.7153 14.1589 31.7782 16.2218C33.8411 18.2847 35 21.0826 35 24C35 30.0751 30.0751 35 24 35C17.917 35 13 30.05 13 24C13 17.9249 17.9249 13 24 13ZM24.55 18.5V24.275L29.5 27.212L28.675 28.565L22.9 25.1V18.5H24.55Z" fill="#8F92A1"/>
<mask id="mask0_293_26" style="mask-type:luminance" maskUnits="userSpaceOnUse" x="13" y="13" width="22" height="22">
<path fill-rule="evenodd" clip-rule="evenodd" d="M24 32.8C28.8601 32.8 32.8 28.8601 32.8 24C32.8 19.1399 28.8601 15.2 24 15.2C19.1399 15.2 15.2 19.1399 15.2 24C15.2 28.8601 19.1399 32.8 24 32.8ZM24 13C26.9174 13 29.7153 14.1589 31.7782 16.2218C33.8411 18.2847 35 21.0826 35 24C35 30.0751 30.0751 35 24 35C17.917 35 13 30.05 13 24C13 17.9249 17.9249 13 24 13ZM24.55 18.5V24.275L29.5 27.212L28.675 28.565L22.9 25.1V18.5H24.55Z" fill="white"/>
</mask>
<g mask="url(#mask0_293_26)">
</g>
</g>
<defs>
<clipPath id="clip0_293_26">
<rect width="48" height="48" fill="white"/>
</clipPath>
</defs>
</svg>
