<svg width="48" height="48" viewBox="0 0 48 48" fill="none" xmlns="http://www.w3.org/2000/svg">
<g clip-path="url(#clip0_293_42)">
<rect width="48" height="48" rx="12" fill="#F7F7F7"/>
<path fill-rule="evenodd" clip-rule="evenodd" d="M17.8887 27.6667H20.3331C20.3331 28.9867 22.0076 30.1111 23.9998 30.1111C25.992 30.1111 27.6664 28.9867 27.6664 27.6667C27.6664 26.3222 26.3953 25.8333 23.7064 25.1856C21.1153 24.5378 17.8887 23.7311 17.8887 20.3333C17.8887 18.1456 19.6853 16.2878 22.1664 15.6644V13H25.8331V15.6644C28.3142 16.2878 30.1109 18.1456 30.1109 20.3333H27.6664C27.6664 19.0133 25.992 17.8889 23.9998 17.8889C22.0076 17.8889 20.3331 19.0133 20.3331 20.3333C20.3331 21.6778 21.6042 22.1667 24.2931 22.8144C26.8842 23.4622 30.1109 24.2689 30.1109 27.6667C30.1109 29.8544 28.3142 31.7122 25.8331 32.3356V35H22.1664V32.3356C19.6853 31.7122 17.8887 29.8544 17.8887 27.6667Z" fill="#8F92A1"/>
<mask id="mask0_293_42" style="mask-type:luminance" maskUnits="userSpaceOnUse" x="17" y="13" width="14" height="22">
<path fill-rule="evenodd" clip-rule="evenodd" d="M17.8887 27.6667H20.3331C20.3331 28.9867 22.0076 30.1111 23.9998 30.1111C25.992 30.1111 27.6664 28.9867 27.6664 27.6667C27.6664 26.3222 26.3953 25.8333 23.7064 25.1856C21.1153 24.5378 17.8887 23.7311 17.8887 20.3333C17.8887 18.1456 19.6853 16.2878 22.1664 15.6644V13H25.8331V15.6644C28.3142 16.2878 30.1109 18.1456 30.1109 20.3333H27.6664C27.6664 19.0133 25.992 17.8889 23.9998 17.8889C22.0076 17.8889 20.3331 19.0133 20.3331 20.3333C20.3331 21.6778 21.6042 22.1667 24.2931 22.8144C26.8842 23.4622 30.1109 24.2689 30.1109 27.6667C30.1109 29.8544 28.3142 31.7122 25.8331 32.3356V35H22.1664V32.3356C19.6853 31.7122 17.8887 29.8544 17.8887 27.6667Z" fill="white"/>
</mask>
<g mask="url(#mask0_293_42)">
</g>
</g>
<defs>
<clipPath id="clip0_293_42">
<rect width="48" height="48" fill="white"/>
</clipPath>
</defs>
</svg>
