<svg width="21" height="19" viewBox="0 0 21 19" fill="none" xmlns="http://www.w3.org/2000/svg">
<path fill-rule="evenodd" clip-rule="evenodd" d="M7.70033 16.5144V10.915H13.2998V16.5144H16.0995V8.96448L10.5001 3.36502L4.9006 8.96448V16.5144H7.70033ZM10.5001 0.733273L19.7485 9.98171H17.966V18.3809H11.4333V12.7814H9.56681V18.3809H3.03411V9.98171H1.25162L10.5001 0.733273Z" fill="white"/>
<path fill-rule="evenodd" clip-rule="evenodd" d="M7.70033 16.5144V10.915H13.2998V16.5144H16.0995V8.96448L10.5001 3.36502L4.9006 8.96448V16.5144H7.70033ZM10.5001 0.733273L19.7485 9.98171H17.966V18.3809H11.4333V12.7814H9.56681V18.3809H3.03411V9.98171H1.25162L10.5001 0.733273Z" fill="white"/>
<path fill-rule="evenodd" clip-rule="evenodd" d="M7.70033 16.5144V10.915H13.2998V16.5144H16.0995V8.96448L10.5001 3.36502L4.9006 8.96448V16.5144H7.70033ZM10.5001 0.733273L19.7485 9.98171H17.966V18.3809H11.4333V12.7814H9.56681V18.3809H3.03411V9.98171H1.25162L10.5001 0.733273Z" stroke="#F7F7F7"/>
<path fill-rule="evenodd" clip-rule="evenodd" d="M7.70033 16.5144V10.915H13.2998V16.5144H16.0995V8.96448L10.5001 3.36502L4.9006 8.96448V16.5144H7.70033ZM10.5001 0.733273L19.7485 9.98171H17.966V18.3809H11.4333V12.7814H9.56681V18.3809H3.03411V9.98171H1.25162L10.5001 0.733273Z" stroke="#F7F7F7"/>
</svg>
