<svg width="18" height="15" viewBox="0 0 18 15" fill="none" xmlns="http://www.w3.org/2000/svg">
<path fill-rule="evenodd" clip-rule="evenodd" d="M1.8 0H16.2C17.1941 0 18 0.805887 18 1.8V12.6C18 13.5941 17.1941 14.4 16.2 14.4H1.8C0.801 14.4 0 13.59 0 12.6V1.8C0 0.801 0.801 0 1.8 0ZM9 6.3L16.2 1.8H1.8L9 6.3ZM1.8 12.6H16.2V3.933L9 8.424L1.8 3.933V12.6Z" fill="#666AEC"/>
<path fill-rule="evenodd" clip-rule="evenodd" d="M1.8 0H16.2C17.1941 0 18 0.805887 18 1.8V12.6C18 13.5941 17.1941 14.4 16.2 14.4H1.8C0.801 14.4 0 13.59 0 12.6V1.8C0 0.801 0.801 0 1.8 0ZM9 6.3L16.2 1.8H1.8L9 6.3ZM1.8 12.6H16.2V3.933L9 8.424L1.8 3.933V12.6Z" fill="#666AEC"/>
</svg>
